<?xml version="1.0" encoding="UTF-8"?>
<svg id="Capa_1" data-name="Capa 1" xmlns="http://www.w3.org/2000/svg" viewBox="0 0 500 500">
  <defs>
    <style>
      .cls-1 {
        fill: #1d1d1b;
        fill-rule: evenodd;
      }
    </style>
  </defs>
  <path class="cls-1" d="m255.92,336.98h38.62c-5.91-3.13-8-11.48-8.35-19.48-3.83-36.18-24.01-64.37-28.88-71.67,22.92-13.75,33.05-34.82,33.05-54.28,0-32.36-28.53-47.67-53.23-47.67h-65.06c2.44,3.48,4.18,4.87,4.18,12.87v164.91c0,8-3.48,11.83-5.91,15.31h29.57c-2.44-3.48-5.91-7.31-5.91-15.31v-60.54c19.93-.32,36.59-3.61,49.94-8.92,20.34,21.8,22.78,53.46,23.13,62.16.35,8.7-4.18,16.35-11.13,22.61h0Zm-61.93-90.81v-90.81h38.27c26.44,0,35.14,16.7,34.79,34.44-1.74,49.06-50.45,56.36-73.06,56.36h0Z"/>
  <path class="cls-1" d="m228.77,280.27c9.16-.14,17.98-.91,25.76-2.21-1.05-3.53-4.88-11.19-6.8-14.35-7.11,1.2-13.73,1.6-18.96,1.6v-3.83c-2.44.87-13.22,2.43-17.74,2.96v76.37c0,8-3.48,11.83-5.91,15.31h29.57c-2.44-3.48-5.91-7.31-5.91-15.31v-60.54h0Z"/>
  <path class="cls-1" d="m260.1,173.96h-31.31v62.28c-4,1.39-12,4-17.74,4.52v-65.41c0-8-1.74-9.39-4.17-12.87h43.32c3.48,2.09,8.18,7.13,9.92,11.48h0Z"/>
  <path class="cls-1" d="m295.03,185.06c5.29,6.37,7.32,14.88,7.15,23.64-.94,26.58-15.67,40.9-32.57,48.45,2.47,3.74,5.58,10.82,7.51,14.67.48-.18,1.99-.71,2.46-.9,20.34,21.8,22.26,53.63,22.6,62.33.35,8.7-4.18,16.35-11.13,22.62h38.62c-5.91-3.13-8-11.48-8.35-19.48-3.83-36.18-24.01-64.37-28.88-71.67,22.92-13.75,33.05-34.82,33.05-54.27,0-25.53-18.29-40.62-37.92-45.78,1.56,2.64,5.87,11.2,7.45,20.4h0Z"/>
</svg>