<?xml version="1.0" encoding="UTF-8"?>
<svg id="Capa_1" data-name="Capa 1" xmlns="http://www.w3.org/2000/svg" viewBox="0 0 500 500">
  <path d="m424.17,235.23h60.65v5.72h-54.54v6.16h54.54v5.72h-54.51v6.24h54.52v5.72h-60.65c-.02-9.84-.02-19.61-.02-29.55Z"/>
  <path d="m280.09,235.23v5.7h-47.35q-3.24,0-3.24,3.1v1.62c0,.89.51,1.35,1.42,1.45.4.05.83.02,1.23.02h42.43c.47,0,.98,0,1.47.03,2.38.11,4.05,1.64,4.1,3.84.05,3.3.05,6.59,0,9.89-.05,2.18-1.62,3.69-3.91,3.92-.37.05-.74.02-1.11.02h-51.71v-5.76h48.35c1.96,0,2.28-.3,2.31-2.17v-2.44c-.03-1.03-.57-1.59-1.67-1.61h-43.9c-3.66,0-5.15-1.42-5.15-4.87v-8.5c.03-2.58,1.7-4.31,4.42-4.31h51.66c.2,0,.37.06.66.08Z"/>
  <path d="m206.35,249.84c-.03,1.5-.67,2.13-2.26,2.13-15.03.02-30.1,0-45.13,0-.2,0-.4-.02-.71-.08v-10.95h45.36c2.18,0,2.73.49,2.73,2.61v6.29Zm2.7,7.85c2.82-.94,3.53-2.93,3.49-5.44-.1-3.93-.05-7.93-.05-11.86,0-3.66-1.65-5.24-5.57-5.24h-54.74v29.63h6.07v-6.93c.29-.06.39-.1.51-.1,14.29,0,28.61-.03,42.9.02.39,0,.96.38,1.16.75,1.06,1.83,2.04,3.69,3.09,5.56.19.29.54.72.81.72,1.99.08,4,.06,6.19.06-1.33-2.5-2.58-4.79-3.86-7.16Z"/>
  <path d="m138.2,257.22c0,1.4-.47,1.85-1.99,1.85h-44.23c-1.74,0-2.13-.35-2.13-1.94v-14.31c0-1.46.42-1.88,1.96-1.88h44.37c1.54,0,2.02.45,2.02,1.86.02,4.79.02,9.6,0,14.42Zm1.01-22.07h-50.66c-3.19,0-4.81,1.59-4.81,4.62-.03,6.75,0,13.48,0,20.23,0,3.38,1.54,4.82,5.08,4.82h50.41c3.21,0,4.88-1.59,4.88-4.6.03-6.83.03-13.66,0-20.47-.02-2.99-1.7-4.6-4.89-4.6Z"/>
  <path d="m69.3,249.72c0,1.67-.64,2.28-2.34,2.28-14.93.02-29.83.02-44.74,0-.29,0-.57-.02-.96-.08v-10.98h45.18c2.36,0,2.85.48,2.88,2.74,0,2.01,0,4.03-.02,6.05Zm.69-14.57H15.16v29.61h6.04v-7.04h49.06c3.51,0,5.18-1.54,5.18-4.9v-12.58c0-3.53-1.67-5.09-5.45-5.09Z"/>
  <path d="m348.07,235.15v5.76h-48.23c-2.11,0-2.45.32-2.45,2.26v13.85c0,1.66.4,2.04,2.18,2.04h48.5v5.76h-51.69c-3.53,0-5.13-1.5-5.13-4.82v-20.01c0-3.33,1.62-4.84,5.13-4.84h51.69Z"/>
  <path d="m363.44,247.11h45.01v-11.88h6.02v29.55h-5.97v-11.84h-45.03v11.83h-6.14v-29.52h6.07c.03,3.95.03,7.85.03,11.86Z"/>
</svg>